<svg width="102" height="102" viewBox="0 0 102 102" fill="none" xmlns="http://www.w3.org/2000/svg">
<rect x="0.5" y="0.5" width="101" height="101" rx="50.5" stroke="#919EAB" stroke-opacity="0.32" stroke-dasharray="3 2"/>
<path fill-rule="evenodd" clip-rule="evenodd" d="M51 5.66675C76.0369 5.66675 96.3334 25.9632 96.3334 51.0001L96.3273 51.7498C95.927 76.4409 75.7866 96.3334 51 96.3334C26.2135 96.3334 6.07309 76.4409 5.67276 51.7498L5.66669 51.0001C5.66669 25.9632 25.9631 5.66675 51 5.66675Z" fill="#F4F6F8"/>
<path d="M39 45.6666C39 46.3999 39.6 46.9999 40.3333 46.9999C41.0667 46.9999 41.6667 46.3999 41.6667 45.6666V42.9999H44.3333C45.0667 42.9999 45.6667 42.3999 45.6667 41.6666C45.6667 40.9333 45.0667 40.3333 44.3333 40.3333H41.6667V37.6666C41.6667 36.9333 41.0667 36.3333 40.3333 36.3333C39.6 36.3333 39 36.9333 39 37.6666V40.3333H36.3333C35.6 40.3333 35 40.9333 35 41.6666C35 42.3999 35.6 42.9999 36.3333 42.9999H39V45.6666Z" fill="#637381"/>
<ellipse cx="52.3333" cy="53.6667" rx="4" ry="4" fill="#637381"/>
<path fill-rule="evenodd" clip-rule="evenodd" d="M58.7733 42.9999H63C64.4667 42.9999 65.6667 44.1999 65.6667 45.6666V61.6666C65.6667 63.1333 64.4667 64.3333 63 64.3333H41.6667C40.2 64.3333 39 63.1333 39 61.6666V47.9599C39.4 48.1866 39.84 48.3333 40.3333 48.3333C41.8 48.3333 43 47.1333 43 45.6666V44.3333H44.3333C45.8 44.3333 47 43.1333 47 41.6666C47 41.1733 46.8533 40.7333 46.6267 40.3333H55.16C55.9067 40.3333 56.6267 40.6533 57.12 41.1999L58.7733 42.9999ZM45.6667 53.6666C45.6667 57.3466 48.6533 60.3333 52.3333 60.3333C56.0133 60.3333 59 57.3466 59 53.6666C59 49.9866 56.0133 46.9999 52.3333 46.9999C48.6533 46.9999 45.6667 49.9866 45.6667 53.6666Z" fill="#637381"/>
</svg>
